<svg xmlns="http://www.w3.org/2000/svg" width="1500" height="1080"><path d="m535.847 326.203-20.586-115.879-57.663 117.982-1.328-1.55-1.439 1.55-57.663-117.871-20.475 115.768h-19.036l29.883-171.55h3.099l64.414 134.695 1.217 3.32 1.218-3.32 64.303-134.694h3.099l29.883 171.55zM589.526 157.2h89.648v17.155h-70.833V230.8h64.635v16.048h-64.635v62.2h71.94v17.155h-90.755zm123.073 0h39.4q25.457 0 44.936 9.961t30.325 28.998q10.847 19.036 10.847 45.377 0 25.567-10.072 44.714-9.96 19.036-29.219 29.55-19.258 10.404-46.374 10.404H712.6zm38.958 151.517q21.471 0 36.634-7.968 15.274-8.08 23.132-23.021 7.969-15.052 7.969-35.638 0-20.254-7.637-35.417-7.526-15.163-22.8-23.574-15.163-8.412-37.298-8.412h-20.033v134.03Zm119.2-151.517h18.925v169.004h-18.926Zm159.928 123.848h-71.608l-18.926 45.156h-21.029l74.597-174.316h2.103l74.817 174.316h-21.028zm-6.53-15.495-29.33-69.948-29.329 69.948z" aria-label="MEDIA" style="font-weight:300;font-size:226.667px;font-family:&quot;Klein Text Trial&quot;;-inkscape-font-specification:&quot;Klein Text Trial Light&quot;;text-align:center;text-anchor:middle;white-space:pre" transform="translate(282.726 572.844)"/><path d="M720.426 187.896h162.435q47.852 0 83.008 20.182 35.156 19.857 54.037 57.292 18.88 37.435 18.88 89.193 0 51.432-18.555 88.867-18.555 37.11-53.385 56.966-34.506 19.857-82.032 19.857h-29.622v164.713H720.426Zm153.32 218.099q18.555-.326 28.646-13.346 10.092-13.347 10.092-38.412 0-25.39-10.092-38.411-9.765-13.347-27.994-13.347h-19.206v103.516Zm198.568-218.1h134.766v188.478h78.776V187.896h135.417v497.07h-135.417V496.49h-78.776v188.476h-134.766z" aria-label="PH" style="font-size:666.667px;font-family:&quot;Klein Condensed Trial&quot;;-inkscape-font-specification:&quot;Klein Condensed Trial&quot;;text-align:center;white-space:pre" transform="translate(-85.003 -5.544)"/><path d="m151.526 199.572 147.166 536.084c4.543-3.053 9.075-6.123 13.625-9.166a4447.702 4447.702 0 0 1 34.748-22.998c10.857-7.142 21.682-14.333 32.647-21.308 8.668-5.54 17.363-11.038 25.996-16.633 6.095-3.984 12.204-7.954 18.134-12.182.982-.713 1.961-1.431 2.932-2.158l81.959-285.97c-9.064-11.32-18.133-22.636-27.195-33.958-10.5-13.02-21.103-25.955-31.666-38.924a10011.839 10011.839 0 0 0-31.666-38.732 5883.493 5883.493 0 0 0-29.078-35.059c-5.338-6.348-10.704-12.672-16.07-18.996zm289.223 0c5.84 7.031 11.698 14.049 17.505 21.108A10066.565 10066.565 0 0 1 490.1 259.63c10.612 13.026 21.26 26.02 31.807 39.1l4.336 5.414 29.97-104.573zm-35.893 528.112c-9.819 6.292-19.546 12.725-29.289 19.134a4398.404 4398.404 0 0 0-34.426 22.784 7323.096 7323.096 0 0 0-27.965 18.814l36.338 132.367zm-55.342 193.1-.222.777.226-.764z" style="stroke-width:1.01057" transform="translate(11.087 -16.631)"/></svg>
